<svg xmlns="http://www.w3.org/2000/svg" width="773" height="173" viewBox="0 0 773 173"><clipPath id="a"><path d="M0 0h773v173H0z"/></clipPath><g clip-path="url(#a)"><path fill="#173b9e" d="M112.202 2.751c10.852-.211 20.992.282 31.719.28-.279 48.619-4.21 45.691 44.906 45.47q.077 1.794.109 3.59c.238 15.807-.115 32.117-.063 48.084-.906 13.697 1.756 29.935-1.492 43.345-5.401 22.303-22.294 26.225-41.474 26.472-14.657.028-29.316.165-43.961-.448-7.831-.327-15.58-2.767-21.554-7.958-8.168-7.098-11.682-17.449-11.839-28.078-.267-18.108.107-36.332-.083-54.45.062-9.666-.887-39.557.825-47.594a35.47 35.47 0 0 1 8.686-16.613c9.731-10.479 20.894-11.708 34.221-12.1"/><path fill="#173b9e" d="M511.876 39.253c7.059-.089 14.318-.206 21.281.927 41.24 6.71 48.062 60.786 16.139 83.426-14.378 8.841-33.073 6.549-49.752 6.391.022-29.962-.299-60.549.136-90.457 4.103.035 8.101-.134 12.196-.287m-3.713 83.03c16.787-.632 28.871 1.81 42.074-10.228a42.38 42.38 0 0 0 10.09-30.545c-.695-9.762-4.655-19.295-12.212-25.739-10.72-9.142-26.728-7.962-40.106-7.892.008 24.33-.392 50.182.154 74.404"/><path fill="#2563ec" d="M36.032 2.702c3.096-.477 16.236-.143 20.326-.12-8.416 3.796-17.441 10.965-21.384 19.481-5.198 11.226-4.178 26.228-4.15 38.291.02 8.726.05 17.312.061 25.961l.133 30.944c.052 24.767-.92 41.503 24.675 53.72l-10.966-.035c-10.974-.263-21.216-.842-30.211-7.841a34.24 34.24 0 0 1-13.004-22.931C.731 133.55.971 124.125.962 117.3L.921 81.212.895 51.098c-.006-5.631-.266-13.927.608-19.269a34.8 34.8 0 0 1 7.26-15.964C16.368 6.463 24.555 3.901 36.032 2.702"/><path fill="#60a5fa" d="M70.286 3.167c3.048-.481 14.874-.155 18.45-.117C75.538 8.261 65.727 22.134 65.23 36.345c-1.158 33.143-.409 66.575-.136 99.754.136 16.442 8.114 26.575 22.029 34.095q-5.54.165-11.083.24c-10.191.194-20.266-1.866-28.394-8.242-14.455-11.34-13.245-26.816-13.274-43.146l-.03-32.702-.016-32.29c.001-5.449-.216-15.886.664-20.931a33.9 33.9 0 0 1 7.033-15.441c6.931-8.68 17.404-13.281 28.263-14.515"/><path fill="#173b9e" d="M378.805 70.178c10.077-1.726 17.638 3.836 23.65 11.097l.028-9.815 8.03-.066.044 39.122c.023 10.392 1.4 24.549-4.111 33.626a30.45 30.45 0 0 1-19.439 13.726c-10.067 2.203-19.555-.589-27.055-7.679-3.129-2.958-6.825-7.102-7.784-11.358.987-3.916 6.845-3.655 9.037-.599 1.088 1.776 2.14 3.466 3.53 5.031a21.08 21.08 0 0 0 15.087 6.969c6.11.212 12.405-1.746 16.764-6.142 7.215-7.279 6.001-15.604 5.801-24.915-9.532 13.112-25.629 15.378-38.912 6.68-13.982-9.154-15.796-31.463-6.216-44.328 5.638-7.571 12.655-10.145 21.546-11.349m5.958 51.858a22.046 22.046 0 1 0-8.333-43.293c-11.82 2.43-19.489 13.911-17.208 25.761s13.664 19.663 25.541 17.532"/><path fill="#173b9e" d="M302.537 70.144c11.338-.754 18.23 3.14 24.982 11.804l-.028-10.334 8.272-.06q-.344 29.148.171 58.293l-7.92.115-.258-11.135c-1.318 1.822-2.622 3.196-4.125 4.852-3.788 3.613-7.136 5.77-12.415 6.973a27.16 27.16 0 0 1-21.089-3.835c-22.103-14.569-17.485-51.282 12.41-56.673m6.639 52.341c11.994-1.697 20.368-12.76 18.743-24.765-1.624-12.004-12.636-20.445-24.65-18.893-12.118 1.564-20.648 12.693-19.009 24.801s12.818 20.57 24.916 18.857"/><path fill="#173b9e" d="M221.36 39.798c13.432-.424 34.729-2.77 44.991 7.077 10.979 10.534 11.366 29.348.389 40.093-8.873 8.684-19.453 7.93-30.791 7.917-2.767-.026-5.677-.153-8.456-.234-.273 11.262-.014 23.635.009 34.981l-8.819-.12c.582-11.516-.629-86.665.612-89.504zm6.032 46.722c11.422.014 23.144 1.453 32.907-5.041 7.514-7.63 7.891-20.894-.042-28.284-7.664-7.141-23.215-4.651-33.154-5.079z"/><path fill="#173b9e" d="M453.541 70.202c15.615-1.099 25.857 9.007 30.27 23.104.887 2.833 1.713 5.527.266 8.286-3.424 2.851-43.804 1.92-51.202 1.984 4.655 18.059 21.299 26.802 36.714 14.504l3.324-3.877c2.915-.164 6.621-.097 9.601-.127-.941 1.808-2.074 3.785-3.308 5.414a29.74 29.74 0 0 1-20.158 11.491c-39.341 4.5-48.335-57.11-5.507-60.779m-20.534 26.085c7.707-.294 15.638-.19 23.368-.181 6.608.022 13.417-.04 20.006.09-4.917-12.171-9.692-18.408-23.883-18.017-12.016 1.609-15.725 7.368-19.491 18.108"/><path fill="#173b9e" d="M604.455 70.66a50 50 0 0 1 3.048-.263c21.506-1.257 29.655 14.346 30.013 33.14-6.364-.388-13.985-.106-20.494-.065l-29.497.024c1.156 4.732 2.113 8.203 5.317 12.131a21.85 21.85 0 0 0 14.977 7.887c5.927.463 11.122-1.478 15.571-5.309l3.567-3.993 10.146-.262a49 49 0 0 1-1.598 2.552c-4.859 7.304-11.954 12.975-20.74 14.57a29.8 29.8 0 0 1-22.118-4.818 30.26 30.26 0 0 1-12.795-19.849 33.93 33.93 0 0 1 5.918-25.358c4.958-6.824 10.816-9.054 18.685-10.387M587.63 96.188c8.56.056 17.462.24 25.995.123 4.939.02 11.463-.247 16.125-.092-4.532-12.046-9.453-19.364-23.762-18.126-12.021 2.378-14.799 7.17-18.358 18.095"/><path fill="#173b9e" d="m719.883 32.929 8.062.026q-.098 31.062.16 62.124c7.51-6.131 21.063-19.285 28.743-23.746l12.23-.327c-11.061 8.377-22.147 18.152-32.737 27.198 5.515 5.709 14.186 12.68 20.451 17.975 5.254 4.552 10.463 9.25 15.873 13.604l-12.525-.204a612 612 0 0 1-31.987-27.689c-.272 8.868-.086 18.638-.101 27.576l-8.065.022c-.03-31.959.376-64.669-.104-96.559"/><path fill="#173b9e" d="M678.133 70.232c15.542.232 21.199 6.038 27.513 19.222-3.125-.034-5.002-.174-8.099-.526-19.884-26.438-50.247-.068-37.752 23.042a21.6 21.6 0 0 0 13.123 10.616c5.844 1.637 11.908.488 17.165-2.328 3.944-2.613 4.982-4.339 7.712-8.102l8.106-.137c-4.319 11.494-12.082 17.851-24.396 19.048a29.2 29.2 0 0 1-22.023-6.926c-19.758-16.921-9.96-52.123 18.651-53.909"/><path fill="#173b9e" d="m147.991 4.174.48.307c13.564 12.176 26.877 25.207 39.168 38.657l.135 1.095c-43.247-1.612-40.166 7.924-39.783-40.059"/></g></svg>