<svg xmlns="http://www.w3.org/2000/svg" width="1024" height="1024" viewBox="0 0 1024 1024"><path fill="#fff" d="M0 0h1024v1024H0z"/><path fill="#173b9d" d="M228.332 428.194c8.164-.663 33.147-.355 41.561.083-.071 11.313-.724 23.453.571 34.576.787 4.775 5.673 9.441 10.385 10.011 10.854 1.312 23.14.657 34.048.588l-.048 59.72c.006 7.68.483 27.425-.872 34.086a36.1 36.1 0 0 1-7.845 16.054c-6.315 7.394-14.155 10.562-23.679 11.276-6.649.646-19.571.461-26.69.421-9.175-.052-26.396.637-34.84-1.21a32.1 32.1 0 0 1-13.005-6.049 34.5 34.5 0 0 1-12.838-22.969c-.839-6.974-.565-17.216-.583-24.463l-.062-39.493-.007-26.675c.014-8.575-.778-15.64 2.763-23.662 6.04-13.685 16.53-20.792 31.141-22.294"/><path fill="#173b9d" d="M625.81 464.597c17.832-.046 39.851-3.015 53.984 9.532 20.685 18.362 19.959 48.491 2.874 68.929-16.092 15.626-35.522 11.986-57.063 11.889.224-30.101-.228-60.318.205-90.35"/><path fill="#fff" d="M634.176 472.983c13.002.154 30.445-1.187 40.642 8.242 15.521 14.354 14.842 40.199 1.561 55.616-12.043 11.99-26.204 10.153-41.992 10.122z"/><path fill="#2563eb" d="M177.882 596.038c-14.708-.322-28.55 1.258-40.195-10.28-9.598-9.511-10.802-19.101-10.872-31.823l-.134-61.801c-.019-6.375.07-13.197-.043-19.484-.256-14.119.22-24.187 10.677-34.71 11.777-11.851 25.037-10.538 40.434-10.603l.391 2.086c-22.332 14.44-21.266 28.48-21.232 52.498l.057 32.598.074 30.013c.037 12.867-1.197 25.613 6.443 36.485 3.812 5.424 8.816 10.891 15.063 13.406z"/><path fill="#60a5fa" d="M195.295 428.179c3.695-.48 14.143-.11 18.171-.051-7.74 4.476-11.608 7.823-16.473 15.453-7.271 11.403-6.225 22.133-6.252 35.127l.025 28.906.093 33.024c.088 25.674-2.277 40.374 22.432 54.806-4.367-.034-8.829.044-13.204.073-22.535.13-39.889-14.052-39.775-37.945.016-3.393-.045-7.115-.053-10.549l-.027-31.61.041-35.668c.014-5.756-.272-12.078.247-17.756 1.781-19.495 16.359-31.405 34.775-33.81"/><path fill="#173b9d" d="M504.845 495.199c11.181-1.065 16.668 3.437 23.613 11.207l.049-9.936 8.013-.065-.054 39.109c.029 6.005.593 18.938-.398 24.235a29.3 29.3 0 0 1-5.48 12.39c-10.009 13.144-30.354 15.223-42.81 4.851-3.649-3.038-9.044-8.842-9.54-13.627 1.374-3.358 4.27-2.22 7.329-1.981 1.174.091 1.983 2.195 2.5 3.15 6.655 12.795 25.477 14.209 35.106 4.087 6.582-6.919 5.348-15.612 5.111-24.324-9.499 13.559-25.532 15.222-38.985 6.49-13.851-8.991-15.77-32.074-5.845-44.543 5.719-7.185 12.474-10.071 21.391-11.043"/><path fill="#fff" d="M504.091 503.542c11.993-1.502 22.967 6.912 24.628 18.885 1.662 11.972-6.607 23.057-18.556 24.876a22.091 22.091 0 1 1-6.072-43.761"/><path fill="#173b9d" d="M428.336 495.105c12.365-.844 17.454 3.087 25.167 11.792l.027-10.408 8.348.017q-.36 29.165.094 58.329c-2.569.099-5.439.077-8.033.111.035-3.355-.298-6.846-.542-10.201l-3.845 4.15c-16.553 15.696-41.181 5.365-46.09-15.297-2.154-9.063-.905-18.415 4.467-26.184 5.117-7.4 11.764-10.676 20.407-12.309"/><path fill="#fff" d="M430.621 503.161c1.717-.008 2.432.02 4.133.219l.997.113c20.954 2.564 26.376 38.969-.515 44.637-11.347.343-21.005-4.278-23.675-16.384-3.207-14.54 3.72-26.428 19.06-28.585"/><path fill="#173b9d" d="M344.63 464.719c8.697-.051 30.066-.843 37.459 1.336a25.54 25.54 0 0 1 10.151 5.782c11.244 10.425 11.457 29.217.701 40.056-7.965 8.025-17.314 8.113-27.691 7.933l-11.774-.108.012 35.169-8.843-.093z"/><path fill="#fff" d="M353.48 473.486c7.174-.064 16.273-.378 23.273.396 15.321 1.694 19.67 21.216 10.283 32.124-8.71 7.135-21.998 5.45-33.505 5.227z"/><path fill="#173b9d" d="M733.039 495.197c21.57-1.605 30.434 14.6 30.549 33.372l-50.037-.068c.523 2.105 1.018 4.46 1.807 6.465 5.643 14.347 24.641 18.103 35.36 7.068.585-.824 1.132-1.473 1.769-2.25 3.046-1.402 6.807-.861 10.241-.718-4.467 8.293-12.231 15.783-22.146 17.1-29.67 3.94-45.353-29.407-27.689-51.433 5.166-6.442 12.041-8.765 20.146-9.536"/><path fill="#fff" d="M732.844 503.172c13.9-1.109 18.946 6.563 22.976 18.079-6.344.28-12.597.189-18.945.159-7.733-.05-15.099-.265-22.807-.455l.052-.254c2.335-10.929 7.543-16.062 18.724-17.529"/><path fill="#173b9d" d="M577.326 495.132c29.42-3.673 36.815 31.962 32.013 32.796-5.507.958-42.127.527-50.358.592.902 3.544 1.688 6.715 3.679 9.827 7.457 11.66 20.959 13.146 31.893 5.867 2.027-1.854 2.658-2.655 4.337-4.854l9.408.019a60 60 0 0 1-1.253 2.205c-14.074 23.679-49.949 17.441-54.899-9.339-3.545-19.182 5.596-33.853 25.18-37.113"/><path fill="#fff" d="M575.241 503.601c15.424-1.096 21.83 2.844 26.964 17.674-5.197.211-10.991.087-16.221.023q-13.426-.25-26.854-.326c2.821-9.055 6.555-14.483 16.111-17.371"/><path fill="#173b9d" d="m845.859 457.896 8.077-.044.111 62.691c7.36-6.263 21.288-19.239 28.525-24.178q6.078-.027 12.154-.178c-10.861 8.453-21.644 18.162-32.337 27.01 5.385 5.748 15.006 13.485 21.29 18.795 4.976 4.544 9.413 8.615 14.826 12.655l-12.327-.066c-10.707-8.282-22.268-18.663-32.039-28.021.369 8.804.113 19.171-.053 28.024l-8.098.17z"/><path fill="#173b9d" d="M801.253 495.131c14.675-1.279 25.266 5.417 30.241 19.334l-7.87-.003c-5.784-9.625-14.748-13.462-25.734-10.118a19.45 19.45 0 0 0-11.868 9.888c-9.65 18.92 5.887 40.786 28.72 31.922 4.915-3.131 5.743-4.294 8.781-9.028l8.102-.078c-2.909 10.748-11.144 17.079-21.887 18.872a29.76 29.76 0 0 1-22.284-5.154c-20.858-15.218-13.987-51.159 13.799-55.635"/><path fill="#173b9d" d="M274.065 429.259c3.423 2.184 37.833 36.025 40.707 39.932-.608.027-1.415.087-2.022.085-43.439-.118-38.614 5.277-38.685-40.017"/><path fill="#5277d8" d="M177.749 427.337c4.53-.007 4.765.339.391 2.086z"/><path fill="#5277d8" d="M178.545 594.423c3.338 1.462 2.718 1.571-.663 1.615z"/></svg>